<?xml version="1.0" standalone="no"?>
<!DOCTYPE svg PUBLIC "-//W3C//DTD SVG 20010904//EN"
 "http://www.w3.org/TR/2001/REC-SVG-20010904/DTD/svg10.dtd">
<svg version="1.0" xmlns="http://www.w3.org/2000/svg"
 width="500.000000pt" height="500.000000pt" viewBox="0 0 500.000000 500.000000"
 preserveAspectRatio="xMidYMid meet">
<metadata>
Created by potrace 1.14, written by Peter Selinger 2001-2017
</metadata>
<g transform="translate(0.000000,500.000000) scale(0.100000,-0.100000)"
fill="#000000" stroke="none">
<path d="M1013 4393 c9 -2 23 -2 30 0 6 3 -1 5 -18 5 -16 0 -22 -2 -12 -5z"/>
<path d="M4946 4151 c-4 -5 3 -7 14 -4 23 6 26 13 6 13 -8 0 -17 -4 -20 -9z"/>
<path d="M3626 3945 c-3 -8 -1 -15 4 -15 6 0 10 7 10 15 0 8 -2 15 -4 15 -2 0
-6 -7 -10 -15z"/>
<path d="M1029 3935 c-1 -3 -3 -9 -4 -15 -1 -5 -3 -13 -4 -16 0 -4 -8 0 -18 7
-14 12 -17 12 -21 0 -3 -8 -16 -25 -28 -38 -25 -25 -32 -39 -14 -28 6 3 10 1
10 -5 0 -6 4 -9 9 -6 5 3 14 -8 21 -25 10 -22 18 -29 32 -26 10 3 16 1 13 -3
-9 -15 7 -40 26 -40 25 0 24 -26 -1 -40 -16 -9 -20 -8 -20 5 0 9 -4 13 -10 10
-6 -4 -4 -15 5 -29 15 -22 14 -24 -10 -40 -14 -9 -30 -14 -35 -11 -5 3 -21 -5
-36 -18 -23 -20 -25 -26 -15 -45 7 -14 17 -19 29 -16 13 5 14 4 3 -4 -8 -6
-21 -8 -29 -4 -10 3 -13 1 -8 -6 5 -8 -2 -12 -19 -12 -15 0 -24 -4 -20 -10 3
-5 -1 -10 -9 -10 -9 0 -16 -7 -16 -16 0 -8 4 -13 10 -9 5 3 18 -3 29 -14 13
-13 21 -16 25 -8 3 8 5 9 5 1 1 -7 -8 -22 -20 -35 l-20 -24 6 23 c7 25 -9 31
-19 6 -5 -13 -9 -12 -27 5 -12 11 -19 24 -15 29 3 5 -6 8 -20 6 -21 -2 -23 0
-13 13 7 8 21 12 31 10 23 -6 23 4 1 25 -32 30 -43 47 -43 68 0 11 -7 20 -15
20 -8 0 -15 -4 -15 -10 0 -5 -7 -10 -15 -10 -8 0 -15 -5 -15 -11 0 -5 -5 -7
-11 -3 -7 4 -1 15 17 30 20 16 24 23 13 24 -8 0 -25 -9 -36 -19 -18 -17 -23
-18 -39 -6 -17 12 -22 10 -45 -18 -17 -21 -28 -27 -33 -19 -4 8 0 12 11 13 16
0 16 1 -2 9 -11 5 -32 9 -47 9 -16 1 -28 5 -28 11 0 5 -9 14 -21 20 -25 14
-49 -2 -49 -32 0 -10 -4 -16 -10 -13 -5 3 -10 -1 -10 -9 0 -9 5 -16 10 -16 17
0 11 -48 -8 -59 -16 -10 -15 -10 3 -11 15 0 17 -2 7 -9 -10 -6 -9 -10 7 -14
33 -8 24 -29 -29 -71 -31 -24 -50 -47 -50 -60 0 -12 -3 -16 -8 -10 -9 14 -42
14 -42 0 0 -6 -4 -5 -9 3 -6 9 -11 10 -15 3 -4 -6 -13 -9 -21 -6 -8 4 -13 10
-10 14 3 5 -13 28 -36 52 -41 43 -79 110 -78 138 0 8 6 0 15 -19 11 -26 17
-32 26 -23 9 9 7 15 -8 26 -10 8 -15 18 -11 22 4 5 11 4 15 -2 9 -13 62 -12
61 1 -3 26 2 34 18 28 12 -5 10 1 -7 25 -13 18 -31 32 -40 32 -27 0 -58 29
-65 60 -4 16 -11 33 -17 36 -7 4 -8 -4 -3 -25 9 -42 -2 -70 -31 -81 -13 -5
-24 -16 -24 -24 0 -20 -34 -38 -47 -25 -5 5 -17 7 -26 3 -15 -5 -16 -148 -17
-1785 l0 -1779 2500 0 2500 0 0 785 0 786 -31 -16 c-17 -9 -33 -14 -36 -12 -7
7 39 47 54 47 11 0 13 165 11 923 l-3 922 -37 -1 c-20 -1 -61 -13 -91 -28 -64
-31 -76 -33 -54 -8 10 10 14 22 10 25 -11 12 50 57 63 46 7 -6 21 -6 39 1 15
6 30 8 35 5 4 -3 16 -2 25 1 13 5 16 20 14 78 -3 90 -5 100 -32 112 -18 8 -27
6 -49 -14 -28 -26 -48 -23 -48 9 0 10 -3 18 -7 18 -22 -4 -43 3 -57 17 -15 15
-21 8 -17 -18 2 -11 -6 -10 -39 7 -17 9 -31 21 -31 28 -1 6 -3 19 -4 27 -1 8
-3 21 -4 28 -2 20 -17 14 -29 -13 -6 -14 -18 -25 -27 -25 -19 0 -19 -14 0 -30
22 -18 18 -32 -5 -18 -11 7 -24 24 -29 38 -9 24 -9 24 -10 3 -1 -13 -4 -22 -8
-22 -22 4 -32 -3 -30 -21 1 -23 8 -25 25 -8 8 8 12 8 12 1 0 -11 -22 -23 -42
-23 -6 0 -7 7 -4 16 5 12 2 15 -11 9 -10 -4 -27 -9 -38 -11 -81 -14 -145 -30
-145 -36 0 -5 -7 -8 -15 -8 -14 0 -16 -8 -20 -65 -1 -22 16 -45 28 -38 4 2 7
-1 7 -6 0 -17 -14 -13 -39 10 -17 16 -25 19 -34 9 -9 -9 -8 -14 6 -24 15 -12
15 -15 3 -19 -8 -3 -25 2 -38 13 -19 15 -21 22 -12 37 7 10 19 17 27 15 11 -2
15 5 13 22 -2 14 1 23 6 20 6 -4 8 2 6 12 -2 11 -12 19 -23 19 -12 0 -25 11
-33 28 -10 21 -17 25 -30 18 -22 -12 -68 20 -60 41 5 11 -1 13 -23 10 -20 -3
-31 1 -35 12 -5 12 -10 13 -25 5 -13 -6 -19 -6 -19 1 0 5 -9 10 -20 10 -11 0
-20 7 -20 16 0 8 -4 13 -10 9 -13 -8 -60 5 -60 17 0 15 -29 40 -39 34 -5 -4
-14 6 -19 21 l-10 28 -2 -27 c-2 -16 -4 -32 -5 -38 -1 -5 -3 -15 -4 -21 0 -5
-6 -7 -12 -3 -8 4 -7 9 2 15 11 6 10 9 -4 15 -9 3 -14 10 -11 15 3 5 -7 20
-23 33 -24 21 -29 22 -39 8 -8 -10 -17 -13 -30 -7 -10 4 -22 8 -26 7 -4 -1 -5
4 -3 11 2 6 -11 19 -30 28 -19 9 -35 12 -35 7 0 -5 -5 -6 -12 -2 -7 4 -8 3 -4
-4 4 -7 3 -12 -3 -12 -5 0 -12 6 -15 13 -3 6 -2 -1 1 -18 3 -16 10 -33 15 -36
6 -3 0 -9 -12 -12 -15 -4 -21 -11 -17 -21 4 -10 1 -16 -8 -16 -10 0 -12 7 -5
30 7 26 6 30 -10 30 -17 0 -22 -21 -8 -36 4 -3 4 -18 2 -32 -3 -21 -2 -23 6
-12 8 13 10 12 10 -3 0 -10 -7 -20 -15 -23 -14 -6 -13 -8 2 -20 17 -13 16 -13
-7 -10 -14 3 -28 5 -31 5 -3 1 -5 13 -3 29 3 24 2 23 -8 -6 -17 -51 -35 -37
-60 48 -8 25 -19 44 -26 42 -7 -1 -12 9 -12 23 0 14 -4 25 -10 25 -14 0 -30
-35 -25 -57 2 -14 -4 -24 -22 -32 -13 -6 -29 -9 -34 -6 -5 4 -9 1 -9 -4 0 -6
4 -11 9 -11 5 0 11 -16 13 -35 2 -19 0 -35 -5 -35 -4 0 -20 -14 -34 -30 -21
-26 -28 -29 -41 -18 -11 9 -16 10 -19 2 -5 -14 -43 -6 -43 8 0 5 -7 5 -17 -1
-10 -5 -40 -7 -67 -5 -33 3 -53 0 -58 -8 -12 -19 -10 -30 5 -21 23 14 42 12
70 -8 16 -12 36 -19 46 -16 11 3 17 -2 18 -15 1 -10 -2 -16 -8 -13 -5 4 -9 -4
-9 -17 0 -18 2 -20 10 -8 7 11 10 11 10 2 0 -7 5 -10 10 -7 7 4 10 -7 8 -30
-1 -22 3 -40 12 -45 7 -4 14 -18 15 -31 1 -13 7 -25 14 -27 8 -3 10 4 6 21 -4
14 -2 28 4 31 7 5 8 1 4 -11 -6 -16 -5 -16 10 -4 12 9 17 10 17 2 0 -7 5 -9
10 -6 6 4 10 -5 10 -19 0 -23 5 -26 35 -28 19 -1 43 -2 52 -2 22 -1 28 20 7
28 -12 4 -15 2 -10 -9 6 -17 -2 -19 -23 -6 -9 6 -10 11 -2 15 6 4 9 11 6 16
-3 5 4 7 17 5 12 -3 25 0 29 6 10 16 29 1 29 -22 0 -11 -4 -17 -10 -14 -6 3
-7 -1 -4 -9 4 -11 0 -16 -10 -16 -9 0 -16 -5 -16 -10 0 -7 -6 -7 -18 -1 -13 7
-22 7 -29 0 -8 -8 -13 -7 -17 0 -4 6 -12 11 -17 11 -6 0 -8 -4 -5 -9 8 -13
-47 -21 -61 -9 -7 6 -32 8 -55 6 -24 -3 -53 -1 -65 3 -13 5 -25 4 -28 -2 -4
-5 -10 -7 -13 -5 -4 2 -18 -2 -32 -10 l-25 -14 30 5 c28 4 29 3 11 -10 -15
-12 -22 -12 -34 -3 -11 10 -17 9 -27 -5 -13 -18 -40 -23 -49 -8 -4 5 -17 8
-31 6 -14 -1 -28 2 -31 6 -3 5 -16 9 -30 9 -14 0 -22 4 -19 10 3 5 -6 12 -20
16 -17 4 -24 11 -21 20 3 8 0 14 -7 14 -9 0 -8 3 1 9 11 7 10 10 -3 15 -26 10
-35 7 -29 -9 8 -19 -24 -32 -39 -15 -10 10 -7 11 13 6 25 -6 25 -6 3 5 -13 7
-23 16 -23 21 0 4 -11 8 -24 8 -12 0 -37 5 -55 11 -25 9 -35 8 -49 -3 -9 -8
-28 -13 -42 -12 -28 2 -46 -16 -27 -28 7 -5 1 -8 -15 -8 -15 0 -30 5 -33 11
-4 6 -19 7 -36 4 -27 -6 -29 -5 -29 24 0 24 -4 31 -20 31 -12 0 -20 -7 -20
-16 0 -9 -9 -18 -20 -21 -11 -3 -20 -9 -20 -13 0 -5 -15 -7 -32 -5 -26 3 -29
2 -15 -6 9 -5 17 -15 17 -20 0 -6 -4 -8 -8 -5 -13 8 -84 -16 -89 -31 -11 -28
-106 -4 -134 33 -8 11 -23 20 -34 21 -11 1 -32 3 -47 5 -16 1 -28 6 -28 10 0
4 -5 8 -11 8 -5 0 -7 -4 -4 -10 8 -13 -1 -13 -26 0 -15 9 -19 7 -19 -5 0 -13
-9 -15 -52 -11 -29 3 -44 3 -33 0 33 -9 39 -22 8 -17 -45 8 -84 27 -79 40 3 6
1 13 -4 15 -5 2 -6 9 -1 17 7 11 16 9 43 -13 46 -35 67 -34 65 2 -2 26 0 27
53 33 30 3 47 6 38 7 -25 3 -22 22 2 22 17 0 19 3 10 20 -6 12 -17 17 -28 14
-13 -5 -14 -4 -3 4 10 7 22 4 43 -11 15 -11 31 -18 35 -14 3 4 1 7 -5 7 -7 0
-12 5 -12 11 0 6 14 9 31 7 17 -2 31 0 30 5 -1 4 -1 15 -1 24 0 9 -3 14 -6 10
-3 -3 -11 -1 -18 4 -6 5 -20 17 -31 25 -11 9 -15 13 -9 10 6 -3 11 2 11 10 0
12 -4 12 -19 -4 -21 -21 -15 -52 11 -52 13 0 13 -2 2 -9 -21 -14 -49 -2 -44
19 3 10 -3 29 -12 43 -14 22 -14 26 -1 40 21 21 0 38 -31 26 -26 -10 -30 -27
-8 -35 8 -4 15 -10 15 -16 0 -5 -4 -6 -10 -3 -6 4 -10 -5 -10 -19 0 -17 -6
-26 -16 -26 -8 0 -12 5 -9 10 4 7 -3 8 -21 4 -22 -6 -26 -4 -21 9 3 9 -1 30
-9 46 -9 17 -15 55 -15 84 0 52 -2 54 -35 66 -19 7 -34 18 -34 24 0 9 -3 8 -8
-1 -5 -7 -16 -10 -25 -6 -9 3 -14 10 -11 15 3 5 -3 9 -13 9 -15 0 -16 2 -3 10
21 14 -3 13 -34 -1 -14 -7 -23 -16 -20 -20 3 -5 -2 -6 -10 -3 -9 3 -13 10 -10
15 7 12 -49 12 -62 0 -16 -16 -116 -41 -140 -35 -18 5 -26 0 -38 -24 -18 -34
-44 -56 -33 -29 6 16 3 18 -35 21 -7 1 -12 -4 -11 -11 2 -7 -15 -18 -37 -24
-21 -7 -38 -16 -37 -21 1 -5 -13 -15 -31 -23 -30 -13 -32 -13 -23 3 5 9 27 30
48 46 22 16 44 40 50 53 l11 23 -29 -21 c-16 -11 -27 -24 -25 -28 3 -4 -3 -12
-13 -18 -15 -10 -21 -7 -32 15 -21 41 -41 53 -55 34 -11 -14 -14 -14 -37 1
-19 12 -27 13 -30 4 -3 -6 -6 -2 -6 10 -1 12 -5 25 -11 28 -5 3 -10 15 -10 26
0 16 -18 28 -21 14z m2651 -29 c0 -3 -4 -8 -10 -11 -5 -3 -10 -1 -10 4 0 6 5
11 10 11 6 0 10 -2 10 -4z m-2655 -66 c3 -5 1 -10 -4 -10 -6 0 -11 5 -11 10 0
6 2 10 4 10 3 0 8 -4 11 -10z m698 -16 c-5 15 -3 18 9 14 9 -4 20 -2 24 2 5 5
15 5 24 -1 12 -9 12 -10 -3 -5 -12 4 -17 2 -15 -6 3 -7 15 -14 27 -16 16 -3
21 -8 16 -20 -4 -9 -7 -21 -8 -27 -4 -18 -22 -33 -28 -23 -4 7 -14 6 -28 -1
-12 -7 -26 -9 -31 -6 -6 3 -10 -1 -10 -10 0 -12 -6 -15 -20 -10 -11 4 -20 2
-20 -4 0 -6 -11 -10 -25 -9 -13 1 -22 4 -20 7 3 2 0 10 -6 17 -7 9 -5 18 10
33 12 12 17 27 14 40 -4 16 -1 21 16 21 11 0 21 6 21 13 0 8 4 7 10 -3 8 -13
10 -12 10 4 0 16 2 16 20 -5 16 -20 19 -20 13 -5z m102 -4 c3 -6 -1 -7 -9 -4
-18 7 -21 14 -7 14 6 0 13 -4 16 -10z m-235 -100 c0 -5 -5 -10 -11 -10 -5 0
-7 5 -4 10 3 6 8 10 11 10 2 0 4 -4 4 -10z m367 -16 c-3 -3 -12 -4 -19 -1 -8
3 -5 6 6 6 11 1 17 -2 13 -5z m1475 -33 c3 9 6 8 11 -5 4 -9 3 -15 -2 -12 -5
3 -8 -9 -7 -27 0 -17 -3 -33 -7 -34 -15 -3 -36 -37 -30 -48 3 -5 0 -4 -8 3
-12 11 -12 14 0 21 11 7 9 10 -8 16 -16 5 -20 12 -16 23 4 10 8 24 10 32 2 8
4 16 5 18 3 3 7 19 9 35 1 6 10 1 20 -12 13 -17 20 -20 23 -10z m-62 -1 c10
-6 11 -10 3 -10 -7 0 -15 1 -16 3 -2 1 -11 -4 -20 -12 -19 -15 -23 -1 -5 17
14 14 19 15 38 2z m107 -22 c-3 -8 -6 -5 -6 6 -1 11 2 17 5 13 3 -3 4 -12 1
-19z m-2437 -16 c-8 -2 -21 -11 -27 -20 -7 -9 -13 -11 -13 -5 0 18 31 44 43
36 7 -4 6 -8 -3 -11z m793 -1 c2 -10 0 -25 -5 -32 -8 -11 -9 -11 -5 1 2 8 0
23 -5 33 -5 10 -5 17 0 17 6 0 12 -9 15 -19z m1371 7 c-3 -4 -12 -8 -20 -8 -8
0 -14 4 -14 8 0 4 9 8 19 8 11 0 17 -4 15 -8z m-1504 -14 c0 -8 -4 -13 -9 -9
-5 3 -12 1 -16 -5 -9 -14 -27 -12 -22 3 2 6 9 12 15 12 5 0 14 3 18 8 11 11
14 9 14 -9z m74 -5 c-8 -14 -31 -11 -31 5 0 8 8 11 19 8 10 -2 15 -8 12 -13z
m3216 0 c0 -6 -4 -7 -10 -4 -5 3 -10 11 -10 16 0 6 5 7 10 4 6 -3 10 -11 10
-16z m-4018 -11 c-7 -7 -12 -8 -12 -2 0 14 12 26 19 19 2 -3 -1 -11 -7 -17z
m838 -13 c0 -5 -5 -3 -10 5 -5 8 -10 20 -10 25 0 6 5 3 10 -5 5 -8 10 -19 10
-25z m-310 4 c0 -6 -4 -7 -10 -4 -5 3 -10 11 -10 16 0 6 5 7 10 4 6 -3 10 -11
10 -16z m395 3 c-3 -3 -11 0 -18 7 -9 10 -8 11 6 5 10 -3 15 -9 12 -12z m-370
-11 c-3 -5 0 -13 5 -16 6 -4 15 -18 20 -31 5 -13 13 -24 17 -23 25 4 43 -3 43
-16 0 -9 9 -15 23 -14 21 0 21 1 2 9 -11 5 -14 9 -7 9 6 1 12 6 12 12 0 5 -4
8 -9 5 -4 -3 -14 7 -20 22 -7 15 -9 24 -5 20 4 -4 14 -2 22 5 13 10 14 9 8 -9
-8 -25 32 -74 44 -54 6 9 16 6 36 -14 16 -14 35 -24 42 -21 7 3 10 0 7 -5 -3
-6 -1 -10 4 -10 6 0 11 -4 11 -8 0 -17 -65 1 -82 22 -14 17 -21 19 -35 10 -10
-6 -27 -8 -38 -4 -26 9 -39 2 -26 -14 8 -9 7 -13 -3 -13 -8 0 -13 8 -11 19 2
10 0 18 -6 18 -5 0 -9 -8 -9 -17 -1 -13 -5 -10 -16 10 -8 15 -20 27 -26 27 -6
0 -9 3 -6 6 4 3 0 17 -8 32 -9 19 -10 30 -2 39 12 15 22 18 13 4z m-830 -11
c3 -5 -3 -10 -14 -10 -12 0 -21 5 -21 10 0 6 6 10 14 10 8 0 18 -4 21 -10z
m1185 -20 c0 -5 -5 -10 -11 -10 -5 0 -7 5 -4 10 3 6 8 10 11 10 2 0 4 -4 4
-10z m-295 -18 c-3 -3 -11 0 -18 7 -9 10 -8 11 6 5 10 -3 15 -9 12 -12z m2525
14 c0 -2 -8 -10 -17 -17 -16 -13 -17 -12 -4 4 13 16 21 21 21 13z m-3500 -59
c0 -5 -7 -4 -15 3 -8 7 -16 10 -16 6 -1 -3 -3 -10 -4 -16 -1 -5 -3 -15 -4 -22
-1 -9 -4 -9 -12 -1 -8 8 -8 19 2 41 12 27 14 28 31 13 10 -8 18 -19 18 -24z
m890 15 c0 -21 -15 -24 -15 -4 0 4 -3 12 -7 18 -4 6 -1 11 7 11 9 0 15 -10 15
-25z m370 -32 c0 -5 -7 -7 -15 -4 -8 4 -15 8 -15 10 0 2 7 4 15 4 8 0 15 -4
15 -10z m1515 -18 c8 -22 -13 -41 -25 -22 -6 10 -6 16 1 19 5 1 2 9 -8 17 -17
12 -16 13 4 8 12 -4 24 -13 28 -22z m169 18 c14 -5 26 -16 26 -24 0 -8 8 -19
17 -25 10 -5 16 -11 13 -13 -20 -13 -69 -38 -76 -38 -4 0 1 9 10 19 25 28 17
65 -14 68 -14 1 -20 0 -14 -3 13 -5 6 -54 -7 -54 -5 0 -12 12 -15 27 -5 19 -2
30 11 40 22 16 18 15 49 3z m710 -6 c9 -8 16 -24 16 -35 0 -10 5 -19 11 -19 5
0 7 -5 3 -12 -5 -8 -2 -9 10 -5 10 4 22 7 27 7 5 0 9 10 9 23 0 17 2 19 9 7 6
-8 7 -18 5 -22 -3 -4 2 -5 10 -2 15 6 20 17 17 37 -3 17 17 5 22 -13 3 -11 1
-20 -4 -20 -6 0 -4 -6 3 -14 7 -8 16 -12 19 -10 9 5 20 -26 13 -37 -3 -5 -11
-9 -17 -9 -7 0 -6 4 3 10 9 6 10 10 3 10 -6 0 -18 -6 -25 -12 -14 -14 -72 -22
-64 -10 2 4 -11 18 -30 31 -18 13 -31 27 -28 32 3 5 -2 12 -10 15 -9 3 -16 14
-16 23 0 9 -5 22 -12 29 -8 8 -9 12 -1 12 6 0 19 -7 27 -16z m-3490 -9 c3 -8
1 -15 -4 -15 -6 0 -10 7 -10 15 0 8 2 15 4 15 2 0 6 -7 10 -15z m914 -16 c2
-23 2 -23 -13 -5 -18 24 -20 39 -2 34 6 -3 13 -15 15 -29z m1962 10 c0 -6 -4
-7 -10 -4 -5 3 -10 11 -10 16 0 6 5 7 10 4 6 -3 10 -11 10 -16z m-2000 -26 c0
-24 -25 -9 -28 17 -3 21 -2 22 12 11 9 -7 16 -20 16 -28z m2042 15 c-2 -10 1
-18 8 -18 6 0 10 -7 8 -16 -2 -8 -7 -14 -12 -14 -5 1 -12 -4 -17 -11 -9 -16
-39 -21 -39 -7 0 6 6 8 13 5 13 -5 39 38 29 48 -11 11 -10 32 3 32 7 0 10 -8
7 -19z m71 11 c13 10 15 9 10 -11 -11 -49 -12 -51 -28 -34 -8 8 -15 25 -15 38
0 18 2 20 9 9 8 -12 12 -12 24 -2z m477 -49 c0 -26 -3 -31 -10 -20 -5 8 -10
31 -10 50 0 26 3 31 10 20 5 -8 10 -31 10 -50z m-630 40 c0 -5 -2 -10 -4 -10
-3 0 -8 5 -11 10 -3 6 -1 10 4 10 6 0 11 -4 11 -10z m540 0 c11 -7 11 -10 2
-10 -7 0 -10 -5 -6 -12 4 -7 3 -8 -5 -4 -6 4 -9 12 -6 17 4 5 -1 9 -11 9 -14
0 -15 -2 -3 -17 8 -10 19 -21 24 -25 6 -5 5 -8 -2 -8 -7 0 -14 -10 -14 -22 -1
-21 -2 -21 -6 -3 -3 11 -9 25 -14 30 -6 9 -6 31 0 53 2 6 27 1 41 -8z m-327
-20 c-3 -11 -7 -20 -9 -20 -2 0 -4 9 -4 20 0 11 4 20 9 20 5 0 7 -9 4 -20z
m217 0 c0 -5 6 -7 13 -4 8 3 18 -6 25 -21 13 -29 16 -46 4 -30 -4 6 -20 21
-36 33 -23 17 -31 20 -38 10 -6 -10 -8 -8 -8 5 0 10 8 17 20 17 11 0 20 -4 20
-10z m-2516 -8 c3 -5 -1 -9 -9 -9 -8 0 -12 4 -9 9 3 4 7 8 9 8 2 0 6 -4 9 -8z
m237 -9 c12 -15 12 -16 -1 -8 -8 5 -24 9 -35 7 l-20 -2 20 9 c11 5 21 10 21
10 1 1 8 -7 15 -16z m2436 2 c0 -8 -4 -12 -9 -9 -4 3 -8 9 -8 15 0 5 4 9 8 9
5 0 9 -7 9 -15z m533 5 c0 -5 -2 -10 -4 -10 -3 0 -8 5 -11 10 -3 6 -1 10 4 10
6 0 11 -4 11 -10z m-887 -15 c-3 -9 -8 -14 -10 -11 -3 3 -2 9 2 15 9 16 15 13
8 -4z m-121 -17 c-7 -7 -12 -8 -12 -2 0 6 3 14 7 17 3 4 9 5 12 2 2 -3 -1 -11
-7 -17z m198 2 c0 -19 -11 -26 -23 -14 -8 8 3 34 14 34 5 0 9 -9 9 -20z
m-2270 -10 c0 -5 -2 -10 -4 -10 -3 0 -8 5 -11 10 -3 6 -1 10 4 10 6 0 11 -4
11 -10z m1087 4 c-3 -3 -12 -4 -19 -1 -8 3 -5 6 6 6 11 1 17 -2 13 -5z m428
-4 c3 -5 -1 -10 -10 -10 -9 0 -13 5 -10 10 3 6 8 10 10 10 2 0 7 -4 10 -10z
m630 0 c-3 -5 -14 -10 -23 -9 -14 0 -13 2 3 9 27 11 27 11 20 0z m505 -5 c0
-11 -29 -11 -33 -1 -4 10 1 12 14 9 10 -3 19 -7 19 -8z m-3760 -5 c0 -5 -5
-10 -11 -10 -5 0 -7 5 -4 10 3 6 8 10 11 10 2 0 4 -4 4 -10z m3426 -18 c-17
-16 -18 -16 -5 5 7 12 15 20 18 17 3 -2 -3 -12 -13 -22z m-2359 -1 c10 -15 9
-20 -1 -24 -9 -4 -16 3 -19 19 -5 29 4 31 20 5z m123 9 c3 -1 16 -3 29 -3 13
-1 26 -8 28 -15 3 -8 -1 -10 -12 -6 -10 4 -31 7 -48 8 -17 1 -32 6 -34 13 -4
10 14 11 37 3z m-290 -30 c8 -15 8 -20 -3 -20 -7 0 -13 9 -13 20 0 11 1 20 3
20 1 0 7 -9 13 -20z m55 -2 c6 -4 2 -8 -7 -8 -10 0 -18 7 -18 17 0 9 3 12 8 7
4 -5 12 -12 17 -16z m225 -19 c0 -4 -7 -6 -15 -3 -8 4 -15 10 -15 15 0 4 7 6
15 3 8 -4 15 -10 15 -15z m2218 14 c-10 -2 -28 -2 -40 0 -13 2 -5 4 17 4 22 1
32 -1 23 -4z m-2624 -15 c-3 -4 -1 -8 3 -8 5 0 9 -9 9 -20 0 -28 -10 -25 -22
8 -9 22 -8 29 2 29 7 0 11 -4 8 -9z m2976 4 c0 -4 -14 -16 -31 -26 -31 -18
-33 -13 -6 22 10 13 37 17 37 4z m-2925 -20 c-3 -3 -11 0 -18 7 -9 10 -8 11 6
5 10 -3 15 -9 12 -12z m2287 -7 c8 -14 8 -16 -3 -11 -8 4 -6 1 3 -7 10 -8 14
-18 10 -22 -4 -5 -1 -5 6 -1 7 4 9 12 6 18 -4 6 0 6 13 -1 11 -6 23 -7 27 -4
3 3 6 2 6 -4 0 -6 -7 -16 -15 -23 -23 -19 -18 -31 9 -20 21 8 24 6 23 -11 -1
-11 -7 -17 -14 -15 -7 3 -12 0 -10 -7 1 -7 -4 -11 -10 -9 -7 1 -13 -4 -13 -10
0 -8 -3 -9 -8 -3 -4 6 -14 10 -22 10 -8 0 -14 6 -12 14 2 8 -2 17 -9 21 -6 4
-11 20 -11 34 0 19 -5 26 -14 22 -8 -3 -14 -1 -14 4 0 6 -8 5 -20 -2 -27 -17
-35 -3 -12 20 11 11 23 18 26 15 3 -4 6 -2 6 4 0 17 42 8 52 -12z m-3155 -7
c-3 -8 -6 -5 -6 6 -1 11 2 17 5 13 3 -3 4 -12 1 -19z m3013 -9 c0 -5 -9 -9
-20 -9 -11 0 -20 6 -20 14 0 9 7 12 20 9 11 -3 20 -9 20 -14z m-2402 -24 c-3
-3 -9 2 -12 12 -6 14 -5 15 5 6 7 -7 10 -15 7 -18z m432 10 c0 -8 -4 -15 -10
-15 -5 0 -7 7 -4 15 4 8 8 15 10 15 2 0 4 -7 4 -15z m85 5 c3 -6 -1 -7 -9 -4
-18 7 -21 14 -7 14 6 0 13 -4 16 -10z m-55 -10 c0 -5 -4 -10 -10 -10 -5 0 -10
5 -10 10 0 6 5 10 10 10 6 0 10 -4 10 -10z m2297 -9 c-3 -13 1 -21 12 -24 11
-3 9 -5 -6 -6 -13 0 -23 -5 -23 -11 0 -5 6 -7 14 -4 7 3 16 -2 19 -10 4 -11 1
-13 -10 -9 -12 5 -15 2 -10 -9 3 -9 -1 -24 -8 -35 -12 -15 -16 -16 -24 -4 -5
8 -14 10 -22 5 -11 -6 -10 -3 1 10 8 11 16 14 18 7 6 -18 22 -12 22 9 0 13 -5
18 -15 14 -13 -5 -14 -2 -5 20 8 21 7 26 -7 26 -14 0 -14 2 2 20 24 26 49 26
42 1z m-2691 -18 c-7 -7 -26 7 -26 19 0 6 6 6 15 -2 9 -7 13 -15 11 -17z m-80
-14 c10 -11 14 -20 9 -19 -21 5 -36 0 -30 -10 3 -5 1 -10 -4 -10 -17 0 -13 18
7 29 16 10 16 10 0 11 -10 0 -18 5 -18 10 0 16 16 12 36 -11z m98 -18 c10 -15
-33 -20 -45 -5 -9 11 -7 14 14 14 14 0 28 -4 31 -9z m593 3 c-3 -3 -12 -4 -19
-1 -8 3 -5 6 6 6 11 1 17 -2 13 -5z m2003 -19 c0 -8 -4 -17 -10 -20 -6 -4 -10
5 -10 20 0 15 4 24 10 20 6 -3 10 -12 10 -20z m-19 -46 c11 -11 27 -18 35 -15
8 3 14 1 14 -3 0 -5 -6 -12 -12 -14 -7 -3 -3 -6 10 -6 13 -1 20 3 17 9 -3 6 3
10 13 10 11 0 25 7 32 15 17 21 24 12 10 -14 -12 -23 -1 -28 18 -9 9 9 12 9
12 0 0 -9 40 -12 150 -12 83 0 150 -2 150 -5 0 -3 -20 -86 -45 -185 -48 -190
-50 -204 -35 -180 6 9 10 10 10 3 0 -7 -6 -16 -14 -20 -7 -4 -21 -39 -30 -78
-9 -38 -19 -81 -22 -94 -5 -17 -4 -22 5 -17 6 4 9 13 5 19 -3 7 2 3 10 -7 18
-22 21 -46 6 -46 -5 0 -10 5 -10 10 0 25 -29 7 -35 -22 -4 -18 -61 -240 -125
-493 -65 -253 -173 -677 -241 -943 l-122 -482 -310 2 -310 3 -129 500 c-212
826 -255 1002 -293 1194 -35 182 -45 220 -45 167 0 -67 -92 -473 -217 -961
-75 -291 -157 -613 -182 -715 l-47 -185 -310 -3 -309 -2 -108 427 c-60 236
-130 511 -157 613 -26 102 -98 383 -160 625 -61 242 -136 533 -166 647 -30
115 -54 212 -54 218 0 6 94 10 265 10 l265 0 11 -45 c6 -25 15 -45 19 -45 5 0
6 -8 4 -17 -3 -10 42 -218 100 -463 213 -908 239 -1025 285 -1299 l28 -164 17
109 c36 223 69 376 138 642 59 227 69 275 57 283 -12 7 -11 9 2 9 9 0 19 10
23 23 3 12 61 235 128 495 l122 472 257 0 256 0 92 -352 c50 -194 117 -452
148 -573 31 -121 60 -222 65 -223 4 -2 6 -7 4 -11 -3 -4 4 -41 15 -82 11 -41
22 -84 24 -95 3 -12 18 -77 34 -145 16 -68 46 -218 66 -334 20 -115 38 -211
40 -213 1 -1 5 23 9 55 19 161 149 762 320 1476 39 159 42 181 25 157 -9 -12
-10 -11 -6 7 3 15 1 20 -8 16 -8 -2 -22 4 -33 15 -17 17 -18 23 -7 38 14 19
77 28 69 9 -3 -5 2 -1 10 9 19 24 20 48 4 65 -11 10 -10 11 4 6 14 -6 19 6 34
74 9 44 20 85 24 91 4 7 24 12 44 13 20 1 36 5 36 10 0 11 -21 32 -40 40 -12
4 -11 6 3 6 9 1 26 -8 38 -20z m-74 -21 c-3 -7 -5 -2 -5 12 0 14 2 19 5 13 2
-7 2 -19 0 -25z m-2222 -18 c3 -5 1 -10 -4 -10 -6 0 -11 5 -11 10 0 6 2 10 4
10 3 0 8 -4 11 -10z m2128 -170 c7 0 6 -4 -3 -10 -13 -8 -13 -10 2 -10 21 0
33 -19 21 -31 -11 -11 -52 -14 -78 -4 -14 5 -16 4 -6 -3 8 -6 9 -12 3 -16 -5
-3 -12 1 -16 9 -3 8 0 17 6 21 7 4 6 10 -3 16 -10 7 -11 11 -3 14 7 3 10 13 7
23 -3 12 5 26 24 41 l28 22 3 -36 c2 -20 9 -36 15 -36z m-92 17 c-10 -9 -11
-8 -5 6 3 10 9 15 12 12 3 -3 0 -11 -7 -18z m-37 -106 c-6 11 -5 12 8 2 8 -7
18 -10 21 -6 4 3 7 1 7 -5 0 -22 -2 -27 -9 -25 -4 1 -7 -6 -8 -16 -1 -10 6
-17 18 -17 10 0 19 6 19 13 0 7 5 13 10 13 16 0 12 -14 -10 -37 -13 -14 -27
-20 -42 -16 -23 5 -23 5 -3 -10 11 -8 22 -11 25 -7 3 5 18 11 33 14 34 6 49
-20 23 -40 -11 -8 -15 -18 -10 -26 4 -7 4 -10 -1 -6 -4 4 -17 1 -28 -7 -18
-13 -22 -12 -34 3 -10 12 -12 12 -8 2 4 -10 2 -9 -8 2 -8 10 -17 16 -21 13 -3
-3 -2 1 4 7 13 15 13 31 1 23 -5 -3 -12 -1 -16 5 -3 5 -3 10 2 10 4 0 13 11
19 23 12 26 -1 67 -21 67 -14 0 -27 25 -18 34 4 3 17 -1 31 -10 17 -11 22 -12
16 -3z m-144 -165 c0 -11 -19 -15 -25 -6 -3 5 1 10 9 10 9 0 16 -2 16 -4z
m917 -41 c0 -8 -7 -15 -15 -15 -12 0 -12 3 -2 15 7 8 13 15 15 15 1 0 2 -7 2
-15z m33 -45 c0 -5 -9 -6 -20 -3 -11 3 -17 9 -15 14 7 10 35 1 35 -11z m-112
-4 c-10 -7 -15 -16 -11 -19 3 -4 12 -2 19 3 9 8 12 6 10 -6 0 -9 5 -19 13 -22
9 -3 11 0 6 8 -5 9 -4 11 3 6 7 -4 12 -2 12 5 0 7 2 10 5 7 9 -9 -14 -59 -25
-53 -5 3 -10 2 -10 -3 0 -5 -9 -12 -21 -15 -12 -3 -18 -10 -14 -16 4 -7 0 -8
-10 -4 -13 5 -14 8 -3 15 10 7 9 10 -5 19 -9 6 -15 14 -12 19 3 5 1 11 -5 15
-11 7 2 24 35 43 27 15 34 14 13 -2z m102 -50 c0 5 5 1 11 -9 12 -21 12 -22
-20 -32 -16 -5 -21 -4 -17 4 4 6 0 11 -11 11 -14 0 -15 2 -5 9 8 4 13 11 13
15 -3 24 2 28 14 12 8 -11 15 -16 15 -10z m-40 -51 c0 -8 -3 -14 -7 -14 -18 3
-34 -2 -30 -8 3 -5 0 -13 -7 -19 -8 -7 -20 -5 -41 8 l-30 19 28 -7 c20 -5 27
-2 27 9 0 16 14 25 43 26 9 1 17 -6 17 -14z m10 -52 c0 -8 4 -12 9 -9 5 4 7
-4 4 -15 -5 -19 -3 -21 20 -17 28 5 31 1 21 -25 -8 -22 -43 -8 -50 20 -5 18
-12 23 -25 20 -11 -3 -17 -1 -14 3 3 5 -1 11 -7 13 -7 3 -2 6 11 6 20 1 22 3
11 16 -11 13 -10 14 4 9 9 -3 16 -13 16 -21z m-1180 7 c0 -5 -7 -7 -15 -4 -8
4 -15 8 -15 10 0 2 7 4 15 4 8 0 15 -4 15 -10z m1330 -15 c0 -8 -3 -16 -7 -18
-5 -3 -8 5 -8 18 0 13 3 21 8 18 4 -2 7 -10 7 -18z m-1344 -30 l29 -15 -37 4
c-21 3 -38 0 -38 -5 0 -5 -9 -9 -20 -9 -13 0 -18 5 -13 16 3 8 12 13 19 10 7
-3 16 -1 19 4 8 13 8 13 41 -5z m1049 -31 c-10 -7 -23 -10 -29 -6 -6 4 -2 8
12 10 13 2 20 8 16 14 -5 7 -2 8 6 3 10 -6 9 -11 -5 -21z m96 -7 c-5 -5 -7
-16 -3 -25 4 -12 1 -14 -13 -8 -10 4 -21 2 -25 -5 -6 -8 -9 -8 -14 0 -4 6 -2
11 5 11 9 0 9 3 0 14 -8 10 -9 16 -1 21 5 3 10 -1 10 -9 0 -9 5 -16 11 -16 6
0 9 6 6 14 -7 18 1 26 20 19 9 -4 11 -9 4 -16z m172 -66 c-2 -10 -15 -17 -31
-18 -15 0 -19 1 -9 4 15 4 21 15 18 35 0 4 5 5 13 2 8 -3 12 -13 9 -23z
m-1193 -357 c0 -8 -19 -13 -24 -6 -3 5 1 9 9 9 8 0 15 -2 15 -3z m59 -220 c4
3 8 -1 8 -9 0 -11 -4 -12 -14 -4 -7 6 -13 17 -12 23 0 7 2 6 6 -2 2 -6 8 -10
12 -8z m28 -36 c-3 -8 -6 -5 -6 6 -1 11 2 17 5 13 3 -3 4 -12 1 -19z m43 -2
c-7 -7 -14 -6 -21 1 -9 9 -7 12 9 10 14 -1 18 -5 12 -11z m-2163 -1478 c-3 -7
-5 -2 -5 12 0 14 2 19 5 13 2 -7 2 -19 0 -25z"/>
<path d="M1650 3745 c0 -8 5 -15 10 -15 6 0 10 7 10 15 0 8 -4 15 -10 15 -5 0
-10 -7 -10 -15z"/>
<path d="M3375 3611 c-3 -5 -1 -12 5 -16 5 -3 10 1 10 9 0 18 -6 21 -15 7z"/>
<path d="M3568 2823 c6 -2 18 -2 25 0 6 3 1 5 -13 5 -14 0 -19 -2 -12 -5z"/>
<path d="M3610 2810 c-8 -5 -12 -12 -9 -15 4 -3 12 1 19 10 14 17 11 19 -10 5z"/>
<path d="M3570 2799 c0 -5 5 -7 10 -4 6 3 10 8 10 11 0 2 -4 4 -10 4 -5 0 -10
-5 -10 -11z"/>
<path d="M3560 2919 c0 -5 5 -7 10 -4 6 3 10 8 10 11 0 2 -4 4 -10 4 -5 0 -10
-5 -10 -11z"/>
<path d="M4140 2560 c-8 -21 -4 -50 7 -50 7 0 13 5 13 11 0 5 5 7 12 3 7 -4 8
-3 4 5 -4 6 -11 9 -16 6 -5 -3 -11 3 -13 12 -3 10 -6 16 -7 13z"/>
<path d="M4376 3908 c7 -11 34 -10 34 1 0 6 -9 9 -19 8 -11 0 -17 -5 -15 -9z"/>
<path d="M3481 3894 c0 -11 3 -14 6 -6 3 7 2 16 -1 19 -3 4 -6 -2 -5 -13z"/>
<path d="M1890 3889 c0 -5 5 -7 10 -4 6 3 10 8 10 11 0 2 -4 4 -10 4 -5 0 -10
-5 -10 -11z"/>
<path d="M2000 3885 c0 -8 7 -15 15 -15 8 0 15 7 15 15 0 8 -7 15 -15 15 -8 0
-15 -7 -15 -15z"/>
<path d="M321 3864 c0 -11 3 -14 6 -6 3 7 2 16 -1 19 -3 4 -6 -2 -5 -13z"/>
<path d="M3903 3858 c-2 -18 0 -20 7 -8 12 18 13 30 2 30 -4 0 -9 -10 -9 -22z"/>
<path d="M1820 3856 c0 -9 30 -14 35 -6 4 6 -3 10 -14 10 -12 0 -21 -2 -21 -4z"/>
<path d="M1340 3840 c0 -5 5 -10 11 -10 5 0 7 5 4 10 -3 6 -8 10 -11 10 -2 0
-4 -4 -4 -10z"/>
<path d="M1880 3835 c-11 -13 -10 -14 4 -9 9 3 16 10 16 15 0 13 -6 11 -20 -6z"/>
<path d="M3861 3834 c0 -11 3 -14 6 -6 3 7 2 16 -1 19 -3 4 -6 -2 -5 -13z"/>
<path d="M4895 3840 c-3 -5 -1 -10 4 -10 6 0 11 5 11 10 0 6 -2 10 -4 10 -3 0
-8 -4 -11 -10z"/>
<path d="M4919 3828 c-6 -10 -17 -17 -26 -16 -9 2 -18 -3 -21 -11 -3 -10 0
-12 12 -8 9 4 16 2 16 -3 0 -17 37 -11 43 8 2 9 8 24 11 33 10 23 -23 20 -35
-3z"/>
<path d="M4983 3824 c0 -17 2 -22 7 -13 5 6 6 18 3 26 -8 19 -10 16 -10 -13z"/>
<path d="M1208 3833 c7 -3 16 -2 19 1 4 3 -2 6 -13 5 -11 0 -14 -3 -6 -6z"/>
<path d="M944 3759 c3 -8 9 -22 12 -31 8 -22 24 -24 24 -3 0 8 -4 15 -10 15
-5 0 -9 5 -7 11 1 6 -4 14 -12 17 -9 3 -11 0 -7 -9z"/>
<path d="M735 3713 c25 -7 36 -23 29 -45 -7 -24 3 -38 22 -31 9 3 12 12 9 24
-5 15 -1 17 24 14 37 -5 50 11 25 30 -25 19 -44 19 -44 0 0 -8 -6 -15 -14 -15
-8 0 -16 7 -20 15 -3 8 -16 14 -28 14 -21 -1 -21 -2 -3 -6z"/>
<path d="M725 3680 c-19 -8 -19 -9 3 -9 12 -1 22 4 22 9 0 6 -1 10 -2 9 -2 0
-12 -4 -23 -9z"/>
<path d="M76 3659 c3 -5 12 -9 21 -9 19 0 9 13 -12 16 -8 1 -13 -2 -9 -7z"/>
<path d="M131 3654 c0 -11 3 -14 6 -6 3 7 2 16 -1 19 -3 4 -6 -2 -5 -13z"/>
<path d="M309 3603 c6 -10 13 -31 16 -48 6 -28 7 -29 20 -11 12 16 11 22 -7
47 -24 32 -44 40 -29 12z"/>
<path d="M380 3614 c0 -17 17 -36 24 -26 3 5 -1 15 -9 22 -8 7 -15 9 -15 4z"/>
<path d="M3148 3598 c10 -13 10 -17 0 -21 -11 -4 -10 -6 0 -6 7 -1 10 -5 7
-11 -3 -5 -1 -10 5 -10 7 0 10 7 6 15 -3 9 0 15 9 15 8 0 15 8 14 18 0 10 -3
12 -6 5 -3 -10 -10 -10 -26 -1 -19 10 -20 9 -9 -4z"/>
<path d="M3106 3578 c3 -5 10 -6 15 -3 13 9 11 12 -6 12 -8 0 -12 -4 -9 -9z"/>
<path d="M4265 3530 c3 -5 8 -10 11 -10 2 0 4 5 4 10 0 6 -5 10 -11 10 -5 0
-7 -4 -4 -10z"/>
<path d="M421 3446 c-11 -13 -11 -20 -3 -28 8 -8 13 -7 18 5 10 27 0 41 -15
23z"/>
<path d="M2877 3419 c8 -8 16 -8 30 0 16 9 14 10 -11 11 -22 0 -27 -3 -19 -11z"/>
<path d="M2958 3373 c7 -3 16 -2 19 1 4 3 -2 6 -13 5 -11 0 -14 -3 -6 -6z"/>
<path d="M3025 3360 c-3 -5 -1 -10 4 -10 6 0 11 5 11 10 0 6 -2 10 -4 10 -3 0
-8 -4 -11 -10z"/>
</g>
</svg>
